<svg width="35" height="35" viewBox="0 0 35 35" fill="none" xmlns="http://www.w3.org/2000/svg">
<g filter="url(#filter0_d_6_28)">
<path fill-rule="evenodd" clip-rule="evenodd" d="M5 26.219L10.0647 24.6027C10.4879 24.4711 10.9016 24.3383 11.3194 24.2005C11.5707 24.1179 11.7237 24.0085 11.9359 24.1269C12.8057 24.613 13.9676 25.0387 14.9817 25.2698C18.3553 26.0381 22.1262 25.3179 24.8837 23.2797C25.3965 22.9009 25.7897 22.5732 26.2401 22.1364L26.8611 21.4919C26.9322 21.4035 26.9914 21.3653 27.0634 21.2727C27.6836 20.4728 27.8687 20.2927 28.4366 19.3024C31.1941 14.4923 30.1964 8.20899 26.2898 4.48912C23.6528 1.97795 20.257 0.682477 16.4763 1.0666C14.2945 1.28827 12.0289 2.16918 10.4574 3.38898C10.1239 3.64808 9.81418 3.86319 9.53 4.14943L9.10685 4.53888C7.47537 6.07906 6.38964 8.15758 5.78015 10.4319C5.07237 13.0746 5.49799 16.3865 6.75974 18.82C6.84939 18.9935 6.9403 19.1864 7.04106 19.3517C7.22613 19.6552 7.21747 19.596 7.1015 19.9493C6.9629 20.37 6.81938 20.7981 6.67872 21.2127C6.39619 22.0471 6.12599 22.8861 5.83481 23.7148L5 26.219V26.219Z" fill="white" stroke="#89B546" stroke-width="0.2835"/>
<path fill-rule="evenodd" clip-rule="evenodd" d="M8.08862 23.1752L11.704 22.0229C11.9574 21.9398 11.994 21.8707 12.1893 22.0031C12.6726 22.3309 13.403 22.7064 14.0071 22.9276C14.698 23.1806 15.3836 23.3879 16.1724 23.5038C19.7701 24.0323 22.9027 22.6505 24.8517 20.748C25.2531 20.3564 25.4682 20.1224 25.8309 19.6774C28.1883 16.7846 28.7106 12.4799 27.1428 9.05823C26.5009 7.65747 25.7252 6.6836 24.8727 5.84627C23.205 4.20904 20.2928 2.68368 16.8695 2.99459C14.9008 3.17308 13.3183 3.79696 11.8414 4.80619C11.549 5.00566 11.3224 5.19935 11.0613 5.40951C10.8022 5.61802 10.5788 5.83311 10.353 6.05725L9.70816 6.79875C6.9634 10.0432 6.53158 15.1848 9.20519 19.1153C9.41658 19.4266 9.38491 19.2839 9.12499 20.0747C8.91648 20.7085 8.20459 22.7126 8.08862 23.1752Z" fill="#89B546"/>
<path fill-rule="evenodd" clip-rule="evenodd" d="M13.6279 7.70064C13.1533 7.77055 12.8625 7.9145 12.5771 8.2834C12.288 8.65765 12.1502 8.7839 11.9565 9.28934C11.616 10.1756 11.6999 11.2091 12.0437 12.0551C12.2074 12.4569 12.385 12.7925 12.5898 13.1363C13.0525 13.9128 14.1127 15.2346 14.7551 15.8802C15.7775 16.9067 16.9484 17.8177 18.7033 18.4683C19.4279 18.7369 20.4684 19.137 21.346 19.0679C22.2849 18.9939 23.1021 18.4433 23.5117 17.96C23.7498 17.6791 23.8835 17.2119 23.9427 16.7645C24.0418 16.0147 23.914 16.0382 23.3563 15.7713C22.9417 15.5726 21.4402 14.7797 21.1022 14.7435C20.8221 14.7135 20.6563 14.8632 20.5572 15.0026C20.4417 15.1655 20.3249 15.323 20.2151 15.4752C19.9749 15.8087 19.7339 16.229 19.3601 16.2549C18.8386 16.2911 17.4538 15.4053 17.1532 15.168C16.8172 14.9031 16.568 14.697 16.2883 14.4067C15.8569 13.958 15.1154 13.0672 14.8847 12.5585C14.7197 12.1954 15.1335 11.8314 15.4304 11.5303C15.8002 11.1553 15.9638 10.8797 15.7718 10.4343C15.4571 9.70474 15.1162 8.80449 14.8156 8.13537C14.7247 7.93261 14.6334 7.76975 14.4183 7.72122C14.2485 7.68339 13.8035 7.67473 13.6279 7.70064V7.70064Z" fill="white" stroke="white" stroke-width="0.216"/>
</g>
<defs>
<filter id="filter0_d_6_28" x="0.86554" y="0.858244" width="33.2762" height="33.4958" filterUnits="userSpaceOnUse" color-interpolation-filters="sRGB">
<feFlood flood-opacity="0" result="BackgroundImageFix"/>
<feColorMatrix in="SourceAlpha" type="matrix" values="0 0 0 0 0 0 0 0 0 0 0 0 0 0 0 0 0 0 127 0" result="hardAlpha"/>
<feOffset dy="4"/>
<feGaussianBlur stdDeviation="2"/>
<feComposite in2="hardAlpha" operator="out"/>
<feColorMatrix type="matrix" values="0 0 0 0 0 0 0 0 0 0 0 0 0 0 0 0 0 0 0.25 0"/>
<feBlend mode="normal" in2="BackgroundImageFix" result="effect1_dropShadow_6_28"/>
<feBlend mode="normal" in="SourceGraphic" in2="effect1_dropShadow_6_28" result="shape"/>
</filter>
</defs>
</svg>
